<svg width="200" height="103"><defs id="SvgjsDefs1926"></defs><g id="SvgjsG1927" featurekey="root" fill="#ffffff"></g><g id="SvgjsG1928" featurekey="text1" fill="#ec6611" transform="matrix(3.8750971578876343,0,0,3.8750971578876343,-4.650114002558718,-26.34872221322886)"><path d="M4.66 16.42 c0.06666 0.02666 0.18 0.04664 0.34 0.05998 s0.32666 0.02 0.5 0.02 c0.57334 0 1.04 -0.16666 1.4 -0.5 s0.54 -0.84 0.54 -1.52 c0 -0.4 -0.05666 -0.73666 -0.17 -1.01 s-0.27 -0.49334 -0.47 -0.66 s-0.43334 -0.28332 -0.7 -0.34998 s-0.54666 -0.1 -0.84 -0.1 l-0.28 0 l-0.32 0.02 l0 4.04 z M1.2 9.66 c0.30666 -0.04 0.77666 -0.096582 1.41 -0.16992 s1.43 -0.11 2.39 -0.11 c0.70666 0 1.42 0.06666 2.14 0.2 s1.37 0.38334 1.95 0.75 s1.05 0.88332 1.41 1.55 s0.54 1.5333 0.54 2.6 c0 0.94666 -0.14334 1.7333 -0.43 2.36 s-0.66666 1.1267 -1.14 1.5 s-1.0133 0.64 -1.62 0.8 s-1.23 0.24 -1.87 0.24 c-0.25334 0 -0.51 -0.01 -0.77 -0.03 s-0.44334 -0.04334 -0.55 -0.07 l0 4.66 c-0.34666 0.06666 -0.66 0.11332 -0.94 0.13998 s-0.54 0.04 -0.78 0.04 c-0.46666 0 -1.0467 -0.06 -1.74 -0.18 l0 -14.28 z M12.3 20.62 c0 -0.65334 0.13996 -1.1933 0.41996 -1.62 s0.64 -0.76666 1.08 -1.02 s0.92666 -0.43 1.46 -0.53 s1.0533 -0.15 1.56 -0.15 l1.22 0 c-0.01334 -0.24 -0.08 -0.44 -0.2 -0.6 s-0.27334 -0.28334 -0.46 -0.37 s-0.39332 -0.14666 -0.61998 -0.18 s-0.46 -0.05 -0.7 -0.05 c-0.32 0 -0.69334 0.03666 -1.12 0.11 s-0.86666 0.19 -1.32 0.35 c-0.12 -0.22666 -0.22334 -0.43332 -0.31 -0.61998 s-0.15332 -0.37666 -0.19998 -0.57 s-0.08 -0.39334 -0.1 -0.6 s-0.03 -0.44332 -0.03 -0.70998 c0.64 -0.21334 1.2767 -0.37334 1.91 -0.48 s1.2033 -0.16 1.71 -0.16 c0.69334 0 1.32 0.08334 1.88 0.25 s1.0367 0.42332 1.43 0.76998 s0.69668 0.79 0.91002 1.33 s0.32 1.1833 0.32 1.93 l0 5.86 c-0.50666 0.14666 -1.12 0.29332 -1.84 0.43998 s-1.48 0.22 -2.28 0.22 c-0.69334 0 -1.33 -0.06334 -1.91 -0.19 s-1.0767 -0.33 -1.49 -0.61 s-0.73668 -0.65 -0.97002 -1.11 s-0.35 -1.0233 -0.35 -1.69 z M17.020000000000003 21.740000000000002 c0.12 0 0.29336 -0.013359 0.52002 -0.04002 s0.39332 -0.05332 0.49998 -0.07998 l0 -2.2 l-1.14 0 c-0.46666 0 -0.86 0.1 -1.18 0.3 s-0.48 0.48 -0.48 0.84 c0 0.26666 0.06 0.47666 0.18 0.63 s0.27 0.27 0.45 0.35 s0.37334 0.13334 0.58 0.16 s0.39666 0.04 0.57 0.04 z M22.780000000000005 18.84 c0 -0.8 0.11338 -1.5333 0.34004 -2.2 s0.56 -1.2367 1 -1.71 s0.98 -0.84334 1.62 -1.11 s1.3733 -0.4 2.2 -0.4 c0.28 0 0.54666 0.0066602 0.8 0.02 s0.50334 0.04 0.75 0.08 s0.5 0.1 0.76 0.18 s0.55 0.18 0.87 0.3 c0.02666 0.45334 -0.01334 0.90334 -0.12 1.35 s-0.27332 0.88332 -0.49998 1.31 c-0.22666 -0.08 -0.43 -0.14334 -0.61 -0.19 s-0.35 -0.08332 -0.51 -0.10998 s-0.31666 -0.04332 -0.47 -0.04998 s-0.31668 -0.01 -0.49002 -0.01 c-0.64 0 -1.17 0.19 -1.59 0.57 s-0.63 1.0367 -0.63 1.97 c0 0.49334 0.06334 0.90334 0.19 1.23 s0.29332 0.58332 0.49998 0.76998 s0.44666 0.32 0.72 0.4 s0.56334 0.12 0.87 0.12 c0.38666 0 0.72332 -0.03334 1.01 -0.1 s0.62332 -0.17332 1.01 -0.31998 c0.22666 0.36 0.40666 0.76334 0.54 1.21 s0.2 0.95666 0.2 1.53 c-0.61334 0.24 -1.1733 0.39334 -1.68 0.46 s-1.0133 0.1 -1.52 0.1 c-0.85334 0 -1.6067 -0.12666 -2.26 -0.38 s-1.2033 -0.61668 -1.65 -1.09 s-0.78332 -1.04 -1.01 -1.7 s-0.34 -1.4033 -0.34 -2.23 z M32.7 13.66 c0.29334 -0.06666 0.58334 -0.11332 0.87 -0.13998 s0.56332 -0.04 0.82998 -0.04 c0.25334 0 0.52668 0.01334 0.82002 0.04 s0.58 0.07332 0.86 0.13998 l0 10.3 c-0.34666 0.06666 -0.66 0.11 -0.94 0.13 s-0.52666 0.03 -0.74 0.03 c-0.22666 0 -0.48 -0.01 -0.76 -0.03 s-0.59334 -0.06334 -0.94 -0.13 l0 -10.3 z M38.760000000000005 13.66 c0.24 -0.05334 0.53334 -0.09334 0.88 -0.12 s0.65332 -0.04 0.91998 -0.04 c0.34666 0 0.69666 0.01334 1.05 0.04 s0.63668 0.06666 0.85002 0.12 l-2.48 4.8 l2.76 5.5 c-0.24 0.05334 -0.54 0.09334 -0.9 0.12 s-0.67334 0.04 -0.94 0.04 c-0.34666 0 -0.69 -0.01334 -1.03 -0.04 s-0.61 -0.06666 -0.81 -0.12 l-2.66 -5.36 z M46.260000000000005 16.48 l-2.96 0 c-0.06666 -0.26666 -0.11 -0.51666 -0.13 -0.75 s-0.03 -0.45668 -0.03 -0.67002 s0.01 -0.43334 0.03 -0.66 s0.06334 -0.47332 0.13 -0.73998 l9.3 0 c0.06666 0.26666 0.11 0.51332 0.13 0.73998 s0.03 0.44666 0.03 0.66 s-0.01 0.43668 -0.03 0.67002 s-0.06334 0.48334 -0.13 0.75 l-2.96 0 l0 7.5 c-0.34666 0.05334 -0.66 0.09334 -0.94 0.12 s-0.53334 0.04 -0.76 0.04 s-0.48 -0.01334 -0.76 -0.04 s-0.58666 -0.06666 -0.92 -0.12 l0 -7.5 z"></path></g><g id="SvgjsG1929" featurekey="text3" fill="#ec6611" transform="matrix(1.0176419901544815,0,0,1.0176419901544815,63.77882980591443,73.33236033257319)"><path d="M1.2 9.66 c0.36 -0.05334 0.68666 -0.0933 0.98 -0.11996 s0.55334 -0.04 0.78 -0.04 c0.24 0 0.51 0.01334 0.81 0.04 s0.62334 0.06666 0.97 0.12 l0 11.2 l4.62 0 c0.06666 0.33334 0.11 0.62334 0.13 0.87 s0.03 0.47 0.03 0.67 c0 0.22666 -0.01 0.46332 -0.03 0.70998 s-0.06334 0.54332 -0.13 0.88998 l-8.16 0 l0 -14.34 z M14.32 23.98 c-0.34666 0.05334 -0.66 0.09334 -0.94 0.12 s-0.53334 0.04 -0.76 0.04 s-0.48 -0.01334 -0.76 -0.04 s-0.58666 -0.06666 -0.92 -0.12 l0 -10.32 c0.29334 -0.06666 0.58334 -0.11332 0.87 -0.13998 s0.56332 -0.04 0.82998 -0.04 c0.25334 0 0.52668 0.01334 0.82002 0.04 s0.58 0.07332 0.86 0.13998 l0 10.32 z M16.560000000000002 13.7 c0.26666 -0.04 0.57336 -0.07668 0.92002 -0.11002 s0.7 -0.06334 1.06 -0.09 s0.71 -0.04666 1.05 -0.06 s0.63666 -0.02 0.89 -0.02 c1.6667 0 2.9134 0.23666 3.74 0.71 s1.24 1.21 1.24 2.21 c0 0.50666 -0.11666 0.93666 -0.35 1.29 s-0.55 0.65668 -0.95 0.91002 c0.56 0.2 1.02 0.48666 1.38 0.86 s0.54 0.9 0.54 1.58 c0 1.2267 -0.45334 2.0766 -1.36 2.55 s-2.2466 0.71 -4.02 0.71 c-0.46666 0 -1.0767 -0.01666 -1.83 -0.05 s-1.5233 -0.10334 -2.31 -0.21 l0 -10.28 z M19.900000000000002 19.72 l-0.000019531 2.06 c0.04 0 0.14666 0.0066602 0.32 0.02 s0.40668 0.02 0.70002 0.02 c0.56 0 0.96 -0.09334 1.2 -0.28 s0.36 -0.44666 0.36 -0.78 c0 -0.13334 -0.02334 -0.26334 -0.07 -0.39 s-0.13 -0.23666 -0.25 -0.33 s-0.28666 -0.17 -0.5 -0.23 s-0.49334 -0.09 -0.84 -0.09 l-0.92 0 z M19.900000000000002 17.62 l0.98002 0 c0.50666 0 0.84666 -0.11 1.02 -0.33 s0.26 -0.45 0.26 -0.69 c0 -0.22666 -0.09 -0.43666 -0.27 -0.63 s-0.51 -0.29 -0.99 -0.29 c-0.14666 0 -0.31666 0.0033398 -0.51 0.01 s-0.35668 0.01666 -0.49002 0.03 l0 1.9 z M27.8 13.7 c0.62666 -0.08 1.2766 -0.14666 1.9499 -0.2 s1.31 -0.08 1.91 -0.08 c1.6133 0 2.8234 0.30334 3.63 0.91 s1.21 1.4567 1.21 2.55 c0 0.41334 -0.04666 0.77334 -0.14 1.08 s-0.20668 0.57 -0.34002 0.79 s-0.27334 0.39666 -0.42 0.53 s-0.26666 0.24 -0.36 0.32 l2.28 4.36 c-0.26666 0.05334 -0.56332 0.09334 -0.88998 0.12 s-0.64332 0.04 -0.94998 0.04 c-0.37334 0 -0.73334 -0.01334 -1.08 -0.04 s-0.63332 -0.06666 -0.85998 -0.12 l-2.22 -4.72 l0.28 -0.16 c0.46666 -0.26666 0.78666 -0.55 0.96 -0.85 s0.26 -0.62334 0.26 -0.97 s-0.10334 -0.63 -0.31 -0.85 s-0.53666 -0.33 -0.99 -0.33 c-0.25334 0 -0.44668 0.01334 -0.58002 0.04 l0 7.86 c-0.34666 0.06666 -0.66 0.11 -0.94 0.13 s-0.52666 0.03 -0.74 0.03 c-0.22666 0 -0.47332 -0.01 -0.73998 -0.03 s-0.57332 -0.06334 -0.91998 -0.13 l0 -10.28 z M38.26 20.62 c0 -0.65334 0.13996 -1.1933 0.41996 -1.62 s0.64 -0.76666 1.08 -1.02 s0.92666 -0.43 1.46 -0.53 s1.0533 -0.15 1.56 -0.15 l1.22 0 c-0.01334 -0.24 -0.08 -0.44 -0.2 -0.6 s-0.27334 -0.28334 -0.46 -0.37 s-0.39332 -0.14666 -0.61998 -0.18 s-0.46 -0.05 -0.7 -0.05 c-0.32 0 -0.69334 0.03666 -1.12 0.11 s-0.86666 0.19 -1.32 0.35 c-0.12 -0.22666 -0.22334 -0.43332 -0.31 -0.61998 s-0.15332 -0.37666 -0.19998 -0.57 s-0.08 -0.39334 -0.1 -0.6 s-0.03 -0.44332 -0.03 -0.70998 c0.64 -0.21334 1.2767 -0.37334 1.91 -0.48 s1.2033 -0.16 1.71 -0.16 c0.69334 0 1.32 0.08334 1.88 0.25 s1.0367 0.42332 1.43 0.76998 s0.69668 0.79 0.91002 1.33 s0.32 1.1833 0.32 1.93 l0 5.86 c-0.50666 0.14666 -1.12 0.29332 -1.84 0.43998 s-1.48 0.22 -2.28 0.22 c-0.69334 0 -1.33 -0.06334 -1.91 -0.19 s-1.0767 -0.33 -1.49 -0.61 s-0.73668 -0.65 -0.97002 -1.11 s-0.35 -1.0233 -0.35 -1.69 z M42.98 21.740000000000002 c0.12 0 0.29336 -0.013359 0.52002 -0.04002 s0.39332 -0.05332 0.49998 -0.07998 l0 -2.2 l-1.14 0 c-0.46666 0 -0.86 0.1 -1.18 0.3 s-0.48 0.48 -0.48 0.84 c0 0.26666 0.06 0.47666 0.18 0.63 s0.27 0.27 0.45 0.35 s0.37334 0.13334 0.58 0.16 s0.39666 0.04 0.57 0.04 z M49.239999999999995 13.7 c0.62666 -0.08 1.2766 -0.14666 1.9499 -0.2 s1.31 -0.08 1.91 -0.08 c1.6133 0 2.8234 0.30334 3.63 0.91 s1.21 1.4567 1.21 2.55 c0 0.41334 -0.04666 0.77334 -0.14 1.08 s-0.20668 0.57 -0.34002 0.79 s-0.27334 0.39666 -0.42 0.53 s-0.26666 0.24 -0.36 0.32 l2.28 4.36 c-0.26666 0.05334 -0.56332 0.09334 -0.88998 0.12 s-0.64332 0.04 -0.94998 0.04 c-0.37334 0 -0.73334 -0.01334 -1.08 -0.04 s-0.63332 -0.06666 -0.85998 -0.12 l-2.22 -4.72 l0.28 -0.16 c0.46666 -0.26666 0.78666 -0.55 0.96 -0.85 s0.26 -0.62334 0.26 -0.97 s-0.10334 -0.63 -0.31 -0.85 s-0.53666 -0.33 -0.99 -0.33 c-0.25334 0 -0.44668 0.01334 -0.58002 0.04 l0 7.86 c-0.34666 0.06666 -0.66 0.11 -0.94 0.13 s-0.52666 0.03 -0.74 0.03 c-0.22666 0 -0.47332 -0.01 -0.73998 -0.03 s-0.57332 -0.06334 -0.91998 -0.13 l0 -10.28 z M66.78 13.66 c0.10666 -0.02666 0.31004 -0.05332 0.61004 -0.07998 s0.62334 -0.04 0.97 -0.04 c0.44 0 0.83334 0.01334 1.18 0.04 s0.59332 0.05332 0.73998 0.07998 l-3.86 6.7 l0 3.62 c-0.34666 0.05334 -0.66 0.09334 -0.94 0.12 s-0.53334 0.04 -0.76 0.04 s-0.48 -0.01334 -0.76 -0.04 s-0.58666 -0.06666 -0.92 -0.12 l0 -3.62 l-3.84 -6.7 c0.14666 -0.02666 0.40332 -0.05332 0.76998 -0.07998 s0.77 -0.04 1.21 -0.04 c0.34666 0 0.68666 0.01334 1.02 0.04 s0.55334 0.05332 0.66 0.07998 l1.96 3.94 z"></path></g></svg>